<?xml version="1.0" standalone="no"?>
<!DOCTYPE svg PUBLIC "-//W3C//DTD SVG 20010904//EN"
 "http://www.w3.org/TR/2001/REC-SVG-20010904/DTD/svg10.dtd">
<svg version="1.0" xmlns="http://www.w3.org/2000/svg"
 width="776.000000pt" height="1280.000000pt" viewBox="0 0 776.000000 1280.000000"
 preserveAspectRatio="xMidYMid meet">
<metadata>
Created by potrace 1.15, written by Peter Selinger 2001-2017
</metadata>
<g transform="translate(0.000000,1280.000000) scale(0.100000,-0.100000)"
fill="#000000" stroke="none">
<path d="M3950 12784 c-116 -21 -230 -57 -480 -149 -318 -118 -446 -145 -548
-116 -40 12 -40 26 -2 -220 55 -359 96 -562 178 -875 51 -193 90 -369 112
-500 9 -59 9 -92 -5 -190 -9 -64 -23 -133 -30 -152 -8 -18 -43 -66 -78 -105
-254 -286 -463 -746 -546 -1202 -42 -226 -75 -321 -191 -535 -406 -751 -747
-1513 -1145 -2555 -361 -945 -441 -1171 -563 -1595 -362 -1250 -520 -1906
-627 -2604 l-26 -169 80 -81 81 -81 -16 -75 c-31 -144 1 -253 89 -304 23 -14
102 -41 175 -60 119 -32 161 -47 199 -73 9 -6 9 -19 3 -48 -20 -82 -29 -214
-19 -280 24 -169 120 -250 329 -277 68 -9 146 -8 387 7 339 20 317 23 463 -50
84 -43 122 -74 200 -164 l64 -74 12 60 c22 109 70 181 161 245 l48 33 130 -1
c108 0 141 -4 195 -23 97 -34 192 -82 320 -162 63 -40 148 -88 189 -107 63
-30 83 -35 145 -35 86 1 140 22 208 83 38 33 48 38 48 23 0 -38 22 -96 45
-119 37 -37 116 -33 230 12 130 51 125 51 160 -4 60 -95 160 -138 403 -173 81
-11 190 -31 242 -44 143 -36 260 -48 385 -41 234 13 481 97 690 235 l70 46
400 1 c427 0 467 4 620 56 178 61 346 189 478 367 47 62 51 66 130 91 177 58
262 118 329 234 22 39 51 87 64 106 l24 35 -61 245 c-96 391 -171 706 -314
1320 -263 1129 -418 1782 -535 2255 -505 2040 -954 3351 -1460 4265 -32 58
-68 137 -79 176 -12 39 -46 215 -76 391 -83 487 -113 604 -192 753 l-45 85 5
210 c4 148 14 275 35 430 l29 220 77 75 c139 134 221 285 252 461 36 211 -13
404 -137 529 -106 107 -291 173 -438 155 -69 -8 -192 -48 -244 -80 l-39 -23
-47 36 c-139 106 -332 144 -541 106z"/>
</g>
</svg>
