<?xml version="1.0" standalone="no"?>
<!DOCTYPE svg PUBLIC "-//W3C//DTD SVG 20010904//EN"
 "http://www.w3.org/TR/2001/REC-SVG-20010904/DTD/svg10.dtd">
<svg version="1.0" xmlns="http://www.w3.org/2000/svg"
 width="724.000000pt" height="1280.000000pt" viewBox="0 0 724.000000 1280.000000"
 preserveAspectRatio="xMidYMid meet">
<metadata>
Created by potrace 1.15, written by Peter Selinger 2001-2017
</metadata>
<g transform="translate(0.000000,1280.000000) scale(0.100000,-0.100000)"
fill="#000000" stroke="none">
<path d="M1940 12794 c-259 -50 -383 -78 -438 -100 -154 -61 -288 -177 -350
-303 -33 -68 -37 -83 -37 -155 0 -45 4 -101 8 -126 l9 -46 -77 -17 c-41 -10
-109 -29 -150 -43 -66 -22 -79 -24 -115 -13 -57 17 -90 1 -90 -44 0 -40 33
-87 61 -87 28 0 23 17 -10 34 -29 15 -45 39 -34 50 4 3 39 6 78 6 49 0 93 7
143 24 107 37 222 60 234 48 13 -13 5 -17 -92 -42 -148 -37 -280 -84 -268 -96
3 -2 85 19 184 46 98 27 188 50 200 50 21 0 64 -38 64 -57 0 -11 -211 -127
-354 -194 -87 -41 -90 -41 -166 -35 -64 6 -80 4 -94 -9 -9 -9 -16 -20 -16 -24
0 -16 42 -62 70 -76 50 -26 55 -16 12 21 -64 54 -52 82 26 62 34 -8 53 -6 109
10 75 23 210 87 318 151 44 26 73 37 79 31 13 -13 -16 -44 -55 -60 -16 -7 -29
-18 -29 -25 0 -22 -34 -41 -140 -79 -95 -35 -197 -83 -188 -91 2 -1 75 22 163
51 88 30 169 53 180 52 22 -3 38 -59 33 -122 l-3 -39 -110 -55 c-113 -56 -205
-92 -236 -92 -10 0 -25 8 -34 17 -16 16 -16 17 1 30 10 7 44 13 76 13 40 0 72
7 101 21 59 30 160 100 153 106 -2 3 -40 -15 -83 -38 -105 -59 -128 -67 -195
-68 -47 -1 -59 -5 -68 -22 -16 -30 -9 -59 22 -82 24 -18 31 -19 73 -8 26 7
100 41 163 76 64 36 126 65 138 65 14 0 42 -23 78 -65 91 -103 228 -157 436
-171 l100 -7 0 -98 0 -99 56 -107 c35 -70 53 -115 49 -128 -9 -33 -39 -61 -94
-89 -57 -29 -164 -93 -223 -133 -31 -21 -45 -25 -80 -20 -66 10 -149 37 -143
47 7 11 120 47 189 61 56 10 203 101 173 107 -18 4 -269 -77 -347 -111 -25
-11 -63 -23 -85 -28 -119 -23 -159 -60 -246 -235 -47 -94 -53 -102 -89 -113
-22 -6 -52 -22 -67 -36 l-28 -23 215 5 c200 5 219 4 268 -15 67 -26 238 -122
299 -169 l47 -36 65 21 c105 32 218 58 508 117 l271 55 57 -21 c70 -26 677
-327 760 -377 98 -59 144 -102 309 -295 175 -204 246 -295 246 -315 0 -25 -28
3 -190 188 -89 102 -194 218 -233 259 l-72 74 -350 172 c-443 217 -525 255
-559 255 -15 0 -62 -9 -104 -20 -43 -10 -138 -31 -212 -45 -220 -43 -506 -118
-527 -139 -3 -2 -25 11 -49 29 -55 42 -226 138 -307 174 -61 26 -64 26 -299
25 -203 -1 -238 1 -243 14 -7 20 3 30 72 66 59 31 79 64 54 89 -10 10 -23 -1
-143 -110 -25 -23 -24 -79 1 -93 12 -6 112 -10 256 -10 l236 0 141 -71 c78
-40 170 -92 206 -117 64 -43 66 -44 97 -29 63 30 377 109 620 157 88 17 168
33 178 35 10 2 66 -19 125 -47 59 -28 209 -97 334 -154 273 -124 398 -187 456
-226 69 -47 482 -518 482 -549 0 -30 -47 13 -208 189 -220 241 -344 363 -397
390 -22 11 -123 56 -225 100 -102 44 -258 114 -347 156 -196 90 -237 100 -353
80 -194 -34 -446 -100 -608 -161 -34 -12 -74 -23 -89 -23 -14 0 -64 22 -112
49 -103 59 -194 101 -308 141 -97 34 -195 39 -366 18 l-98 -12 -38 44 -39 45
9 -50 c11 -71 11 -71 -16 -103 -41 -49 -72 -225 -51 -293 7 -24 4 -27 -51 -47
-33 -12 -80 -41 -109 -67 -29 -24 -64 -49 -79 -55 -25 -9 -26 -13 -20 -57 4
-27 14 -75 22 -107 8 -35 12 -74 8 -95 -4 -20 -1 -130 6 -245 13 -207 14 -210
41 -242 22 -24 28 -42 28 -76 0 -56 -12 -66 -111 -102 -84 -30 -280 -135 -286
-153 -2 -6 6 -17 18 -23 33 -18 75 -2 239 95 79 47 148 85 152 85 13 0 63 -84
138 -231 119 -235 160 -369 160 -531 0 -111 -14 -187 -65 -348 -45 -141 -54
-214 -32 -257 9 -17 45 -51 79 -76 75 -53 338 -319 426 -430 107 -135 186
-287 162 -311 -19 -19 -10 -44 25 -75 24 -20 46 -31 67 -31 47 0 227 -64 364
-129 l122 -59 7 -48 c18 -128 46 -275 58 -312 11 -32 74 -99 299 -321 156
-154 304 -295 328 -313 23 -18 57 -48 76 -66 18 -17 40 -32 50 -32 9 0 56 29
104 65 91 68 138 92 340 174 136 56 158 67 148 76 -9 9 -114 -21 -250 -71
-169 -63 -259 -106 -287 -138 -52 -56 -52 -56 -404 299 -178 179 -329 325
-335 325 -15 0 -17 9 -61 270 -53 313 -58 370 -37 370 9 0 16 2 16 4 0 2 -16
38 -36 80 -20 42 -34 79 -32 82 3 2 37 -33 77 -80 132 -155 313 -299 667 -532
577 -379 674 -444 737 -497 37 -32 67 -55 67 -52 0 3 -9 23 -20 44 -26 53
-106 111 -594 436 -423 281 -494 335 -680 515 -99 95 -252 284 -290 357 -21
41 -43 132 -145 603 -140 650 -162 771 -179 1010 -9 134 -23 139 -70 23 l-32
-82 90 -363 c50 -200 101 -399 114 -443 13 -44 27 -105 30 -135 6 -44 66 -320
126 -577 10 -44 -4 -42 -33 4 -192 304 -279 460 -521 933 -212 415 -299 599
-332 698 -31 93 -40 104 -54 68 -37 -98 7 -201 357 -841 208 -380 293 -524
511 -870 173 -273 181 -291 162 -351 -12 -35 -7 -97 16 -216 4 -20 1 -28 -8
-28 -8 0 -84 35 -169 78 -85 43 -179 84 -210 91 -68 14 -80 26 -159 161 -107
181 -285 427 -464 640 -150 179 -162 217 -98 316 21 32 41 67 44 76 8 19 -16
331 -32 426 -16 94 -56 212 -111 331 -63 134 -110 261 -140 379 -21 81 -22 94
-9 102 80 52 310 41 581 -25 57 -14 142 -28 189 -32 93 -6 131 -21 156 -58 9
-14 23 -25 31 -25 22 0 18 8 -122 325 -36 83 -69 156 -72 164 -5 11 -2 13 13
7 10 -4 38 -12 62 -19 39 -10 43 -9 58 11 9 13 38 28 72 38 31 8 95 31 142 49
109 43 256 87 393 120 168 39 587 118 632 118 50 0 387 -157 503 -234 87 -58
217 -165 282 -231 59 -62 200 -284 200 -317 0 -54 -41 -245 -58 -275 -22 -37
-76 -76 -107 -76 -27 0 -39 15 -94 108 -23 40 -62 97 -86 126 -60 74 -65 86
-65 164 0 60 -4 74 -29 108 -38 52 -144 151 -148 138 -2 -5 10 -49 26 -97 20
-57 26 -87 18 -87 -7 1 -34 21 -62 46 -144 131 -230 195 -315 238 -121 61
-140 59 -67 -7 31 -29 57 -56 57 -60 0 -4 -44 -7 -97 -7 -219 -1 -348 -24
-657 -120 -122 -38 -248 -77 -281 -87 l-60 -18 44 -3 c52 -4 189 24 380 78
213 60 269 70 479 86 108 8 209 18 223 23 36 12 76 -7 172 -83 159 -123 185
-151 196 -209 15 -74 27 -194 51 -502 l21 -270 -65 -265 c-78 -319 -116 -490
-116 -518 0 -30 -10 -52 -24 -52 -14 0 -128 116 -217 220 -187 217 -239 298
-402 625 -163 328 -200 420 -216 555 -9 70 -12 77 -50 111 -42 38 -119 79
-146 79 -20 0 -19 -24 1 -41 23 -19 65 -107 119 -249 117 -310 192 -460 343
-690 122 -185 225 -321 349 -458 46 -52 82 -96 79 -99 -7 -7 -313 152 -424
222 -124 76 -192 103 -192 75 0 -34 304 -210 544 -316 83 -36 162 -76 174 -87
13 -12 35 -43 47 -68 32 -63 57 -71 196 -67 l114 3 55 -41 c30 -23 125 -80
210 -127 281 -153 322 -170 248 -101 -43 40 -103 76 -273 167 -76 41 -141 79
-143 86 -13 40 480 -58 648 -129 88 -38 202 -110 222 -143 54 -85 66 -700 17
-855 -19 -58 -40 -65 -251 -73 -105 -4 -195 -12 -200 -17 -6 -6 8 -14 40 -22
64 -15 82 -35 89 -102 5 -50 2 -60 -44 -148 -96 -184 -224 -379 -282 -429 -30
-25 -131 -114 -225 -196 -532 -467 -881 -735 -958 -735 -36 0 -41 11 -73 160
-29 137 -38 170 -161 632 -50 187 -94 379 -109 470 -50 313 -67 378 -101 378
-13 0 -15 -20 -14 -127 1 -71 1 -135 1 -145 -1 -9 -19 -30 -42 -46 -22 -17
-69 -72 -104 -124 -85 -125 -217 -283 -383 -457 l-136 -144 -1 -90 0 -91 -65
-12 c-36 -7 -145 -33 -242 -57 -307 -78 -384 -131 -495 -337 -85 -160 -90
-177 -74 -248 7 -31 15 -79 18 -106 l6 -50 -185 -180 c-102 -100 -210 -201
-240 -226 l-55 -45 -7 -180 c-4 -99 -16 -263 -27 -365 -12 -110 -22 -304 -26
-477 l-6 -291 60 -94 c84 -131 108 -175 128 -238 21 -64 220 -459 290 -575
130 -214 324 -453 392 -481 18 -8 47 -14 66 -14 20 0 52 -12 83 -31 72 -46
111 -61 189 -70 195 -23 865 -246 865 -288 0 -12 -27 -4 -325 91 -121 39 -321
101 -445 138 -124 38 -251 80 -283 94 -73 33 -87 33 -56 0 36 -40 110 -69 358
-140 369 -106 371 -107 586 -204 l131 -59 94 30 c52 17 167 46 255 64 88 18
198 42 244 52 83 18 84 18 95 -2 27 -49 78 -85 157 -110 160 -50 310 -65 449
-45 158 23 230 64 230 130 0 41 -9 52 -55 67 -23 7 -34 20 -47 55 l-17 45 79
7 c118 10 130 18 88 63 l-21 23 30 0 c19 0 50 13 80 34 78 54 124 73 188 81
84 10 243 44 285 61 40 17 50 29 50 64 0 14 6 36 13 50 11 21 10 27 -5 40 -13
11 -18 33 -19 82 l-2 67 79 83 c195 204 417 486 502 636 70 125 168 335 185
399 20 74 54 101 312 243 534 293 1200 713 1345 848 l75 69 -33 31 c-26 25
-31 35 -23 49 17 31 83 88 185 158 l98 67 -3 77 c-3 64 -9 85 -31 119 -15 22
-45 83 -67 135 -75 181 -249 540 -743 1532 -274 550 -510 1015 -524 1033 -14
18 -23 36 -19 40 14 14 106 -102 184 -232 93 -156 379 -617 748 -1206 281
-449 452 -733 528 -875 l48 -90 -82 -120 c-77 -113 -93 -145 -71 -145 13 0
201 190 234 238 33 48 30 72 -8 65 -26 -5 -25 -8 -41 69 -2 13 -22 47 -45 77
-22 29 -40 59 -40 67 0 8 29 45 63 83 35 38 90 108 122 155 l59 86 -16 33 c-9
17 -62 84 -119 147 -141 157 -541 661 -719 905 -367 502 -433 586 -614 771
l-115 118 45 89 c103 205 222 379 293 431 57 42 61 50 61 120 0 95 -29 168
-219 556 -104 212 -199 408 -211 435 -69 157 -251 591 -275 654 -35 93 -64
122 -230 232 -152 102 -638 373 -776 435 -171 76 -203 76 -372 3 -39 -17 -86
-37 -104 -45 -32 -14 -32 -13 -70 33 l-38 46 -6 116 c-7 143 -30 200 -139 340
-79 102 -231 261 -250 261 -6 0 -82 32 -168 71 -86 39 -170 76 -187 82 -16 6
-43 20 -60 32 -16 13 -55 30 -85 40 -30 10 -70 27 -88 38 -41 24 -34 33 58 73
59 25 77 27 190 28 147 1 175 12 256 97 56 60 95 133 120 224 18 65 32 395 20
459 -12 64 -24 38 -30 -66 -20 -315 -43 -431 -98 -512 -39 -57 -103 -117 -148
-140 -74 -38 -132 -40 -280 -10 -29 5 -33 4 -22 -7 6 -7 12 -19 12 -26 0 -17
-106 -65 -146 -65 -36 0 -93 27 -149 72 -72 58 -85 61 -136 38 -98 -44 -398
-162 -457 -179 l-62 -18 -53 24 c-29 13 -96 31 -151 39 -54 8 -100 17 -103 20
-2 2 22 22 54 44 68 46 175 103 182 96 3 -2 -8 -18 -24 -34 -40 -42 -13 -38
34 6 76 68 122 160 141 281 12 71 7 103 -16 103 -8 0 -14 8 -14 18 0 18 17 50
22 42 13 -20 43 -76 73 -137 23 -47 52 -87 86 -117 29 -26 54 -45 56 -42 3 2
-8 23 -23 45 -30 46 -27 61 8 37 12 -9 30 -16 39 -16 9 0 19 -9 22 -20 4 -16
14 -20 50 -20 25 0 48 4 51 8 3 5 0 25 -6 46 -11 34 -9 38 17 66 16 17 25 30
19 30 -5 0 -1 5 9 11 9 6 15 14 12 19 -3 5 -1 11 5 15 16 10 12 29 -15 69 -16
24 -20 36 -11 36 9 0 12 9 8 26 -4 24 -2 26 19 19 13 -4 31 -14 40 -21 22 -20
27 -17 21 11 -2 15 0 25 7 25 6 0 11 5 11 10 0 6 -10 10 -21 10 -21 0 -20 1 6
36 21 28 26 42 21 67 -4 25 -3 28 5 15 16 -28 39 -22 39 10 0 15 4 33 8 39 12
18 29 2 85 -78 26 -37 67 -85 92 -108 37 -34 52 -41 84 -41 22 0 43 5 46 10 4
6 -7 10 -25 10 -17 0 -44 7 -60 15 -69 36 -175 227 -134 242 7 2 22 -13 35
-34 47 -79 89 -123 117 -123 35 0 92 -35 92 -56 0 -10 5 -14 15 -10 11 4 24
-8 43 -41 38 -65 71 -103 90 -103 13 0 12 4 -6 23 -18 20 -180 314 -198 362
-6 15 -4 17 11 12 9 -4 23 -2 31 4 18 15 50 -37 129 -210 35 -79 67 -146 70
-149 15 -15 11 12 -15 90 -15 48 -31 104 -35 125 -4 21 -11 44 -17 51 -8 9 -6
12 6 12 24 0 19 13 -11 32 -27 17 -27 17 -5 18 28 0 28 3 -4 35 -30 31 -27 49
9 53 l27 3 -20 26 c-13 17 -18 33 -14 50 5 19 2 25 -15 30 -49 13 0 47 53 37
19 -3 65 -24 103 -46 37 -22 95 -51 128 -64 122 -50 262 -165 290 -239 13 -31
27 -48 50 -59 43 -21 57 -20 89 5 59 46 21 110 -113 193 -108 66 -156 158
-167 321 l-7 95 32 0 c43 0 136 -32 260 -91 57 -27 106 -47 108 -45 6 5 -49
56 -60 56 -5 0 -61 24 -126 54 -64 30 -163 73 -221 96 -112 44 -219 99 -240
125 -18 21 -13 20 91 -29 95 -45 169 -70 169 -58 0 4 -36 30 -80 57 -79 49
-102 73 -57 59 53 -16 90 -35 130 -67 93 -76 395 -237 444 -237 34 0 73 -42
67 -71 -5 -24 -5 -24 11 -4 17 21 14 67 -5 90 -6 7 -29 15 -52 19 -53 9 -224
96 -385 198 -71 44 -149 91 -175 104 -46 24 -107 88 -94 101 3 4 29 -1 58 -12
l51 -18 16 22 c14 19 27 22 76 22 39 0 61 -4 64 -12 2 -7 14 -23 27 -36 28
-28 69 -30 119 -6 33 16 41 16 133 -1 97 -18 178 -43 232 -71 21 -11 30 -24
35 -55 6 -34 9 -39 21 -29 32 27 4 108 -46 134 -16 8 -42 15 -57 15 -16 0 -49
15 -77 35 -57 40 -119 66 -166 68 -29 2 -35 7 -42 34 -9 36 -50 73 -81 73 -11
0 -35 -5 -52 -11 -29 -11 -41 -6 -188 71 -87 45 -176 98 -200 118 -54 45 -124
77 -227 103 -70 18 -100 20 -194 15 -165 -10 -166 -10 -231 8 -242 69 -292 79
-400 82 -60 1 -121 0 -135 -2z m284 -72 c22 -4 41 -12 43 -19 6 -18 -59 -76
-118 -106 -30 -15 -99 -63 -153 -106 l-99 -80 -43 30 c-24 16 -46 34 -50 41
-9 14 -8 93 1 160 7 52 15 57 125 77 55 11 241 12 294 3z m234 -72 c156 -43
284 -131 331 -226 23 -46 23 -48 6 -80 -9 -18 -32 -46 -50 -64 l-32 -31 4 68
c6 80 -5 109 -64 167 -45 44 -133 89 -156 80 -10 -4 -28 4 -47 19 -27 23 -104
47 -150 47 -21 0 -34 15 -25 30 10 17 106 11 183 -10z m-782 -242 c-87 -109
-145 -233 -146 -308 0 -85 40 -160 111 -207 60 -39 68 -25 85 140 7 74 18 155
25 181 16 64 33 60 22 -6 -4 -29 -8 -109 -8 -178 1 -176 24 -235 113 -287 42
-25 57 -28 132 -28 141 1 242 49 407 193 52 46 97 81 100 78 17 -17 -200 -222
-279 -263 -103 -54 -240 -64 -353 -28 -61 20 -81 36 -123 98 -30 43 -36 47
-73 47 -67 0 -116 30 -154 95 -9 15 -14 14 -60 -9 -54 -28 -165 -47 -165 -28
0 9 81 32 116 32 8 0 28 7 44 15 29 15 30 17 30 94 0 106 14 174 52 249 36 72
106 152 132 152 16 0 15 -4 -8 -32z m1654 -1 c70 -27 140 -66 140 -78 0 -5 -4
-9 -9 -9 -9 0 -233 89 -240 95 -1 2 0 9 4 15 7 12 25 8 105 -23z m-85 -27 c3
-5 -1 -10 -9 -10 -8 0 -18 5 -21 10 -3 6 1 10 9 10 8 0 18 -4 21 -10z m359
-52 c32 -46 7 -108 -43 -108 -52 0 -89 73 -56 110 25 28 79 27 99 -2z m-216
-5 c26 -11 32 -17 20 -20 -9 -2 -34 5 -55 16 -46 25 -19 28 35 4z m-823 -293
c-10 -11 -21 -17 -24 -14 -3 3 3 12 13 20 28 20 32 17 11 -6z m547 -67 c23
-14 32 -15 35 -5 8 21 42 14 128 -27 l83 -39 7 -115 c4 -63 5 -121 3 -127 -2
-7 -27 17 -56 53 -28 36 -86 92 -129 125 -93 71 -109 88 -118 125 -8 32 3 35
47 10z m-216 -46 c81 -60 170 -144 162 -152 -7 -7 -240 169 -246 186 -8 21 30
6 84 -34z m267 -118 c12 -6 110 -98 217 -204 129 -128 208 -198 235 -209 21
-9 43 -22 47 -29 11 -17 10 -55 -2 -62 -17 -11 -78 23 -94 52 -35 66 -197 201
-315 263 -74 39 -138 90 -112 90 6 0 30 -9 52 -21 67 -34 67 -16 1 53 -73 76
-81 93 -29 67z m-1462 -206 c-15 -91 -22 -125 -27 -121 -5 6 14 187 21 198 15
25 17 -3 6 -77z m54 -102 c-5 -31 -10 -40 -18 -32 -16 16 -14 131 3 171 l15
35 3 -65 c2 -36 0 -85 -3 -109z m191 30 c19 -22 68 -57 116 -82 78 -41 81 -44
51 -47 -37 -4 -129 37 -161 70 -22 25 -57 98 -46 98 4 0 22 -17 40 -39z m984
-42 c0 -5 -4 -9 -10 -9 -5 0 -10 7 -10 16 0 8 5 12 10 9 6 -3 10 -10 10 -16z
m-981 -74 c18 -25 28 -45 24 -45 -21 0 -103 101 -103 126 0 12 45 -34 79 -81z
m796 -2 c29 -27 63 -55 76 -64 31 -22 20 -33 -22 -24 -32 7 -139 104 -139 125
0 23 37 7 85 -37z m-243 -794 c16 -12 188 -98 381 -191 477 -229 534 -264 658
-411 130 -154 179 -255 179 -366 l0 -45 -122 121 c-68 66 -150 138 -183 159
-112 71 -816 424 -846 424 -16 0 -89 -13 -162 -29 -72 -17 -179 -39 -237 -51
-58 -12 -138 -30 -178 -41 -41 -11 -79 -18 -86 -16 -10 4 -46 211 -46 265 0 5
29 15 65 21 36 7 125 34 198 62 237 91 312 118 330 119 11 0 32 -10 49 -21z
m-1042 -48 c113 -27 231 -54 262 -61 65 -13 54 8 102 -185 14 -55 26 -119 26
-142 0 -38 -3 -43 -27 -48 -16 -3 -45 -11 -65 -17 -35 -10 -39 -9 -78 25 -44
37 -134 88 -260 146 -72 34 -81 35 -210 39 -74 2 -139 8 -143 12 -5 4 -4 18 3
31 25 51 164 249 174 249 6 0 103 -22 216 -49z m-202 -530 c72 -26 195 -87
377 -186 l50 -28 132 56 c169 71 295 111 456 142 183 36 226 34 296 -13 31
-20 112 -59 181 -86 485 -188 562 -223 582 -260 6 -12 118 -127 249 -256 149
-148 245 -250 258 -277 20 -39 20 -44 5 -95 -18 -61 -44 -108 -59 -108 -5 0
-31 44 -57 98 -72 150 -101 177 -391 360 -266 168 -377 233 -467 271 -48 21
-65 23 -135 18 -265 -20 -826 -152 -992 -233 -84 -42 -65 -43 -383 23 -464 95
-575 113 -707 113 -39 0 -74 4 -77 9 -7 11 43 55 87 77 22 12 44 14 76 10 25
-4 116 -16 201 -27 155 -19 661 -107 670 -116 2 -2 12 -23 20 -46 9 -23 20
-42 25 -41 6 0 17 20 26 44 9 24 25 49 35 56 18 11 232 60 371 84 52 9 67 8
93 -5 28 -14 31 -14 37 0 3 10 -3 28 -15 43 -28 37 -57 34 -287 -27 -104 -28
-200 -51 -211 -51 -28 0 -44 21 -64 78 -8 25 -21 48 -28 50 -11 3 -13 -10 -7
-71 5 -50 4 -77 -4 -81 -6 -4 -43 4 -81 18 -145 53 -377 104 -636 141 -92 13
-171 28 -176 33 -14 14 16 173 42 226 11 24 29 47 38 51 9 4 69 16 132 26 150
24 232 19 338 -20z m1621 -452 c58 -20 261 -131 422 -232 158 -98 301 -209
341 -263 54 -74 111 -192 112 -233 2 -63 -25 -42 -90 69 -34 58 -79 127 -100
154 -83 105 -444 334 -704 447 -70 30 -104 39 -146 39 -61 0 -337 -49 -484
-85 -174 -44 -635 -197 -724 -241 -48 -24 -48 -24 -80 -5 -33 20 -152 60 -254
86 -143 36 -358 65 -528 72 l-174 6 -10 36 c-14 50 -13 91 3 91 6 0 23 -9 37
-20 30 -23 78 -25 144 -5 27 8 66 15 86 15 46 0 830 -133 930 -158 40 -10 49
-8 105 29 117 76 583 194 865 218 106 10 180 4 249 -20z m1435 -152 c448 -227
829 -460 885 -541 16 -23 67 -124 114 -226 46 -102 131 -282 187 -400 257
-541 413 -881 454 -990 l17 -46 -38 -41 c-43 -46 -103 -155 -227 -413 -123
-253 -188 -372 -199 -361 -5 5 -17 51 -27 102 -10 52 -61 243 -113 424 -53
182 -105 368 -117 415 -12 47 -31 100 -42 118 -11 18 -214 219 -452 446 -514
494 -615 601 -631 678 -6 26 -18 35 -82 65 -41 19 -81 32 -88 29 -7 -2 -25
-22 -41 -43 -63 -86 -169 -183 -200 -183 -26 0 68 305 135 439 23 46 60 109
82 141 21 31 42 71 45 88 4 17 14 38 23 46 20 18 191 63 276 72 91 10 118 44
73 91 -22 24 -72 31 -83 12 -14 -22 -248 -114 -269 -106 -22 9 -128 147 -123
160 3 8 25 17 49 20 24 3 75 20 113 37 98 43 138 38 279 -33z m-3509 -117
c154 -18 463 -87 491 -111 6 -5 15 -28 18 -52 8 -46 85 -213 134 -291 18 -28
32 -54 32 -59 0 -15 -61 -2 -225 48 -283 85 -450 104 -607 68 -40 -9 -89 -17
-108 -17 -34 -1 -35 0 -33 34 2 32 -20 265 -33 353 l-6 37 124 0 c67 0 164 -5
213 -10z m2616 -848 c38 -57 69 -107 69 -112 0 -5 -18 -19 -40 -30 -48 -24
-62 -51 -120 -222 -24 -71 -47 -128 -53 -128 -10 0 1 637 11 654 7 13 50 -40
133 -162z m736 -67 c92 -89 256 -242 363 -342 225 -209 572 -558 618 -622 64
-88 32 -113 -58 -47 -34 25 -67 46 -74 47 -30 2 -47 10 -90 43 -26 20 -73 43
-104 52 -32 10 -68 29 -84 45 -19 19 -47 31 -86 39 -31 7 -65 21 -76 32 -20
22 -112 68 -135 68 -8 0 -22 -7 -32 -16 -21 -19 -46 -9 -102 45 -36 34 -41 36
-109 36 -60 0 -72 3 -82 20 -18 32 -85 92 -118 106 -27 11 -32 10 -43 -4 -18
-24 -27 -22 -78 23 -49 43 -154 103 -167 95 -4 -3 -29 6 -54 20 -26 14 -60 25
-75 25 -20 0 -31 7 -39 25 -21 45 -92 42 -92 -5 0 -10 -7 -23 -16 -30 -12 -11
-18 -11 -30 1 -13 13 -10 24 21 91 19 42 35 81 35 87 0 17 60 56 170 111 159
80 271 145 315 184 22 19 43 34 47 33 4 -1 83 -74 175 -162z m-652 -515 c27
-27 53 -50 57 -50 4 0 8 20 8 44 0 25 5 48 11 51 21 13 77 -6 116 -40 23 -19
50 -35 61 -35 10 0 27 -9 37 -20 17 -18 20 -19 41 -5 36 23 52 18 59 -17 7
-29 57 -86 77 -88 4 0 13 12 20 28 7 15 18 26 23 26 5 -1 23 -27 39 -58 29
-55 31 -56 73 -56 39 0 43 -2 43 -25 0 -22 3 -25 25 -19 23 6 25 3 25 -26 0
-21 4 -30 13 -26 67 27 89 30 123 11 28 -15 36 -16 49 -5 13 11 19 10 36 -6
17 -15 24 -16 39 -6 27 17 26 17 68 -29 29 -31 47 -42 80 -46 23 -3 47 -12 53
-19 6 -8 24 -14 39 -14 18 0 37 -11 59 -35 23 -26 40 -35 64 -35 63 0 108 -20
156 -70 64 -66 92 -72 137 -29 26 25 37 30 46 21 9 -9 9 -17 -2 -36 -12 -23
-10 -28 18 -60 29 -33 67 -120 79 -179 4 -19 0 -34 -13 -48 -18 -19 -19 -37
-16 -223 5 -331 -31 -833 -63 -865 -20 -20 -41 -2 -212 189 -303 338 -462 495
-613 609 -117 88 -202 131 -345 171 -129 36 -513 117 -740 155 -88 15 -166 32
-172 38 -20 15 -16 40 26 213 50 201 89 335 103 351 8 10 15 7 30 -12 34 -43
75 -58 138 -52 51 6 61 3 111 -26 81 -49 130 -66 242 -82 182 -27 231 -36 266
-53 18 -9 67 -28 109 -42 59 -21 80 -33 92 -55 28 -51 127 -84 157 -54 8 8 28
1 75 -26 34 -20 70 -41 78 -46 82 -47 140 -87 167 -115 24 -26 40 -34 66 -34
37 0 142 -50 222 -106 21 -15 95 -19 95 -6 0 11 -81 88 -108 101 -12 7 -27 9
-32 6 -5 -3 -32 14 -58 39 -34 32 -58 46 -77 46 -20 0 -40 12 -69 44 -31 32
-53 46 -90 55 -61 15 -155 62 -198 100 -44 38 -149 82 -215 88 -39 4 -66 15
-101 39 -26 19 -59 34 -73 34 -14 0 -43 11 -63 25 -43 29 -44 30 -66 10 -13
-12 -33 -13 -97 -8 -98 7 -113 14 -95 43 18 29 15 33 -23 28 -39 -4 -43 -1
-17 18 15 11 5 13 -66 14 -78 0 -83 1 -94 25 -14 31 -60 48 -93 33 -17 -8 -32
-7 -56 1 -17 6 -42 11 -54 11 -12 0 -30 9 -40 20 -10 11 -24 20 -32 20 -17 0
-15 9 29 122 32 85 36 89 88 99 66 13 75 10 125 -41z m785 -215 c10 -12 10
-18 0 -30 -16 -19 -30 -10 -30 21 0 27 12 31 30 9z m1120 -1058 c29 -114 50
-210 47 -213 -5 -5 -92 9 -137 22 -17 4 -17 18 0 239 11 140 18 181 30 168 5
-4 32 -102 60 -216z m-894 -162 c14 -99 -26 -667 -76 -1045 -55 -424 -81 -571
-224 -1275 -96 -471 -130 -669 -118 -691 9 -16 11 -15 20 3 25 47 113 433 212
938 98 496 121 652 200 1357 22 197 50 403 62 459 17 82 19 110 11 155 -5 30
-7 56 -4 58 8 5 282 -307 387 -440 106 -136 96 -126 141 -133 26 -4 41 -13 48
-29 19 -43 47 -19 70 58 22 73 26 62 179 -410 185 -575 367 -1084 518 -1455
38 -93 78 -194 89 -224 l19 -53 -23 6 c-65 19 -150 26 -321 26 -315 0 -474
-35 -696 -152 -165 -87 -326 -200 -314 -219 8 -13 69 16 148 70 123 83 316
170 486 217 78 22 104 24 320 24 403 1 475 -23 422 -142 -72 -161 -475 -542
-747 -708 -72 -43 -155 -88 -185 -100 -93 -36 -207 -100 -253 -140 -45 -40
-65 -75 -250 -425 -113 -215 -229 -421 -275 -488 -16 -23 -48 -76 -71 -118
-42 -75 -142 -200 -330 -414 -140 -159 -211 -247 -211 -262 0 -7 -9 -13 -20
-13 -10 0 -34 -18 -51 -40 -26 -32 -45 -44 -88 -56 -133 -36 -777 -238 -976
-306 -92 -31 -299 -86 -408 -108 -114 -24 -119 -23 -382 59 -226 69 -475 137
-647 176 -81 18 -169 43 -195 56 -61 29 -209 177 -285 284 -131 186 -265 407
-478 791 -35 64 -88 143 -117 175 -50 56 -53 63 -53 112 0 119 73 899 92 976
6 25 11 88 12 140 l1 94 180 108 c99 59 186 116 193 127 7 11 18 51 25 91 6
40 17 73 22 74 6 1 38 -81 71 -183 68 -205 68 -197 4 -265 l-38 -40 23 -237
c37 -367 43 -389 158 -612 106 -205 375 -674 406 -708 20 -22 50 -36 128 -58
56 -16 141 -48 190 -71 195 -91 530 -242 568 -256 26 -9 58 -13 91 -9 66 7
330 100 605 211 359 145 295 99 703 504 197 196 395 399 440 451 45 52 165
205 266 340 281 375 392 510 418 510 14 0 23 -32 67 -225 83 -369 94 -405 115
-405 6 0 10 9 10 20 0 36 -101 534 -143 705 l-42 170 2 655 c2 360 7 831 13
1045 21 826 23 911 16 948 -4 21 -11 35 -15 32 -28 -17 -49 -548 -63 -1550
-16 -1147 -16 -1122 5 -1212 23 -98 22 -140 -2 -148 -11 -3 -179 -205 -374
-448 -195 -243 -408 -500 -474 -572 -209 -227 -515 -509 -647 -596 -249 -164
-764 -359 -947 -359 -68 0 -70 1 -379 150 -135 65 -289 132 -344 149 -54 17
-111 40 -126 51 -37 26 -104 130 -280 430 -238 406 -244 422 -291 699 -27 162
-31 202 -26 306 6 122 13 165 27 165 14 0 73 -274 139 -639 11 -62 27 -124 36
-137 18 -28 55 -32 55 -6 0 58 -105 522 -256 1135 -42 170 -64 279 -64 318 0
121 90 294 178 342 63 34 196 73 312 92 52 8 121 20 152 25 32 5 71 19 88 31
27 21 32 22 46 7 19 -19 27 -85 54 -448 40 -547 119 -1052 185 -1181 27 -52
71 -89 106 -89 19 0 95 29 183 69 261 119 435 170 664 196 73 8 136 16 141 19
16 10 361 662 361 682 0 4 -46 -58 -101 -137 -139 -196 -259 -348 -318 -401
-58 -52 -115 -73 -327 -118 -221 -48 -515 -133 -585 -170 -21 -12 -26 -10 -51
21 -15 18 -34 53 -43 78 -18 57 -98 539 -125 758 -43 349 -49 900 -11 988 25
56 99 144 283 333 155 159 197 212 213 262 15 50 48 120 56 120 4 0 21 -42 38
-92 43 -136 233 -904 275 -1111 38 -186 56 -244 83 -264 22 -17 36 -8 151 94
53 47 158 132 232 188 222 168 381 309 688 609 84 82 155 146 158 143 7 -7
-90 -162 -250 -402 -107 -161 -136 -196 -270 -330 -226 -225 -516 -465 -763
-631 -69 -46 -132 -84 -142 -84 -23 0 -70 50 -119 128 -54 84 -75 180 -117
532 -18 145 -25 670 -11 768 7 43 5 51 -7 47 -40 -16 -42 -43 -42 -454 1 -577
19 -732 114 -946 32 -71 67 -152 77 -180 17 -43 24 -50 49 -53 34 -3 44 3 221
153 66 56 202 168 304 250 422 340 508 421 622 586 90 130 334 510 458 714
119 197 195 308 239 349 23 23 31 38 31 65 0 46 -24 135 -44 166 -16 24 -15
24 17 30 18 4 53 5 77 3 l45 -3 3 -56 c6 -106 -102 -663 -178 -916 -69 -235
-196 -550 -504 -1256 -103 -236 -203 -468 -222 -518 -20 -49 -40 -89 -44 -89
-4 0 -22 33 -40 73 l-31 72 4 -116 c4 -115 16 -159 42 -159 26 0 30 7 453 965
326 737 367 857 497 1460 25 116 59 254 75 307 29 92 30 99 15 133 -8 19 -22
51 -30 71 l-16 35 69 -7 c69 -6 70 -6 107 28 l38 35 -2 429 -2 429 40 -39 c30
-29 42 -50 47 -81z m1195 -62 c167 -171 250 -273 684 -843 170 -223 406 -526
525 -674 274 -341 248 -304 222 -325 -11 -9 -50 -68 -85 -131 -35 -63 -70
-115 -78 -115 -8 0 -34 34 -58 75 -95 161 -321 525 -446 720 -72 113 -219 347
-325 520 -332 541 -424 680 -512 777 -48 53 -54 64 -41 76 15 15 32 3 114 -80z
m-357 -32 c16 -7 39 -37 69 -93 45 -84 73 -153 217 -543 80 -214 183 -466 435
-1060 146 -345 288 -694 378 -935 66 -177 157 -470 157 -508 0 -27 -135 -153
-246 -229 -96 -65 -942 -579 -1167 -708 -229 -132 -275 -178 -318 -319 -46
-152 -159 -385 -242 -496 -83 -112 -547 -657 -608 -716 -75 -70 -171 -144
-188 -144 -8 0 -10 8 -5 23 12 39 50 90 140 187 244 266 500 601 679 891 89
143 207 368 236 448 15 40 212 243 279 288 25 16 134 78 242 136 377 204 513
294 714 475 97 88 270 273 322 346 l26 37 -38 112 c-96 285 -258 700 -476
1223 -214 510 -359 874 -445 1119 -88 251 -108 293 -176 383 -40 51 -47 67
-38 78 14 17 20 17 53 5z m160 -23 c14 -13 51 -70 82 -128 185 -337 1024
-2091 1139 -2380 21 -52 53 -130 71 -173 37 -87 42 -135 18 -172 -22 -34 -175
-166 -185 -160 -4 3 -14 36 -23 73 -20 88 -74 245 -179 518 -96 248 -125 319
-337 814 -220 513 -413 1010 -535 1378 -41 125 -52 149 -86 180 -40 38 -48 57
-26 65 24 10 36 7 61 -15z m-166 -170 c66 -152 107 -254 223 -556 119 -309
292 -737 439 -1082 50 -118 114 -273 142 -345 82 -211 250 -729 241 -741 -4
-7 -52 -66 -106 -133 -189 -232 -432 -420 -872 -671 -370 -212 -493 -313 -584
-485 -29 -55 -98 -185 -153 -289 -186 -352 -305 -520 -659 -931 -81 -93 -172
-194 -201 -223 -52 -51 -58 -53 -160 -77 -119 -26 -327 -84 -928 -255 -587
-168 -700 -195 -700 -170 0 5 -33 19 -72 30 -40 12 -156 48 -258 80 -102 32
-241 75 -310 95 -254 74 -318 95 -331 112 -13 15 -9 16 43 10 119 -14 813
-197 927 -244 36 -15 80 -26 102 -25 33 2 227 60 1059 322 107 34 244 73 303
86 135 31 179 48 197 78 8 13 97 111 197 218 214 228 206 219 316 376 162 230
294 450 495 822 153 285 210 378 253 412 20 16 91 48 165 73 168 59 271 110
289 144 16 32 69 82 195 187 250 207 467 432 520 538 38 74 39 121 4 172 -15
21 -35 69 -45 106 -10 36 -61 176 -113 310 -209 538 -454 1243 -546 1570 -58
203 -67 226 -119 283 l-37 40 9 95 c11 128 16 160 26 160 5 0 27 -42 49 -92z
m-3067 -2771 c-13 -13 -26 -3 -16 12 3 6 11 8 17 5 6 -4 6 -10 -1 -17z m-1909
-2058 c199 -316 404 -582 536 -695 88 -75 100 -91 77 -100 -34 -14 -98 17
-154 74 -126 128 -581 830 -581 896 0 18 16 -5 122 -175z m2863 -698 c-6 -5
-26 -14 -45 -19 -19 -5 -134 -41 -255 -80 -121 -38 -239 -75 -263 -82 -24 -6
-50 -14 -58 -17 -8 -3 -14 -1 -14 4 0 16 253 102 485 163 66 18 125 33 130 35
21 7 29 5 20 -4z m505 -89 c0 -12 -198 -129 -249 -147 -24 -8 -127 -31 -230
-50 -243 -47 -361 -70 -745 -149 -331 -69 -362 -73 -350 -55 12 19 67 37 347
113 419 114 569 152 731 186 82 17 193 42 247 56 81 21 210 49 242 53 4 1 7
-3 7 -7z m-452 -249 c-10 -2 -26 -2 -35 0 -10 3 -2 5 17 5 19 0 27 -2 18 -5z
m-236 -57 c81 -34 208 -152 208 -193 0 -18 -28 -16 -163 11 -170 35 -221 53
-272 98 -58 51 -58 68 -2 68 42 0 53 -5 118 -47 35 -24 83 -30 94 -13 3 5 -14
22 -39 37 -26 15 -46 34 -46 40 0 18 59 17 102 -1z"/>
<path d="M3860 4723 c-35 -77 -49 -101 -143 -248 -284 -442 -418 -660 -655
-1072 -166 -288 -310 -517 -369 -590 -36 -44 -194 -170 -324 -258 -167 -113
-477 -335 -655 -470 -111 -84 -227 -166 -258 -184 -57 -33 -70 -51 -37 -51 32
0 196 87 278 148 244 181 794 550 925 620 52 28 102 60 112 71 9 10 21 45 26
77 10 72 16 86 103 244 173 312 767 1228 889 1370 35 41 90 95 121 118 31 24
59 52 62 61 9 28 -34 211 -49 211 -2 0 -14 -21 -26 -47z"/>
<path d="M3820 11715 c0 -9 9 -15 21 -15 18 0 19 2 9 15 -7 8 -16 15 -21 15
-5 0 -9 -7 -9 -15z"/>
<path d="M2860 11438 c0 -18 18 -34 28 -24 3 4 -2 14 -11 23 -16 16 -17 16
-17 1z"/>
<path d="M2360 10821 c0 -11 31 -24 39 -16 3 3 -1 10 -9 15 -19 12 -30 12 -30
1z"/>
<path d="M85 8383 c-35 -9 -36 -18 -11 -94 23 -68 42 -159 126 -593 17 -87 37
-173 44 -190 8 -17 19 -69 25 -116 6 -47 38 -202 71 -345 70 -302 120 -578
151 -825 22 -180 29 -210 54 -210 40 0 46 120 14 270 -11 52 -45 232 -75 400
-30 168 -79 436 -109 597 -71 375 -134 771 -145 898 -9 113 -25 162 -65 193
-27 22 -41 24 -80 15z"/>
<path d="M2312 7223 c-151 -161 -320 -429 -310 -494 2 -19 15 -2 62 80 78 137
133 218 222 322 40 47 83 103 94 123 35 59 3 44 -68 -31z"/>
<path d="M3935 6579 c-9 -17 -25 -74 -35 -127 -34 -178 -88 -396 -114 -467
-15 -38 -62 -133 -105 -210 -96 -172 -154 -286 -148 -292 13 -13 155 229 247
420 56 117 75 169 104 292 52 215 57 235 68 235 6 0 8 -10 5 -22 -3 -13 -18
-92 -32 -177 -39 -230 -49 -256 -215 -546 -115 -200 -143 -255 -133 -255 9 0
58 73 200 298 123 196 140 244 184 515 17 105 37 206 44 222 24 53 23 85 -4
85 -13 0 -20 9 -24 30 -8 38 -22 38 -42 -1z"/>
<path d="M4052 6463 c-15 -27 -48 -174 -72 -313 -12 -69 -31 -156 -42 -195
-20 -71 -107 -225 -253 -450 -83 -129 -92 -148 -67 -143 9 2 31 25 47 51 68
109 262 397 281 420 14 16 41 28 83 37 72 15 68 3 76 190 3 74 10 169 16 211
10 67 9 81 -7 110 -9 19 -20 47 -23 63 -8 35 -26 44 -39 19z m22 -189 c-1 -32
-6 -122 -11 -198 -9 -139 -9 -139 -41 -167 -61 -55 -63 -42 -28 150 40 213 57
282 70 278 7 -2 11 -27 10 -63z"/>
<path d="M1054 6296 c-259 -130 -414 -226 -414 -257 0 -29 24 -20 160 61 131
77 247 136 335 169 99 37 121 51 144 91 23 42 25 50 12 50 -5 0 -112 -51 -237
-114z"/>
<path d="M2035 6395 c46 -142 142 -335 166 -335 12 0 -14 67 -77 195 -51 104
-105 189 -89 140z"/>
<path d="M3867 5543 c-19 -69 -42 -95 -187 -206 -58 -45 -184 -147 -281 -228
-97 -81 -235 -197 -308 -258 -200 -166 -291 -220 -377 -221 -84 -1 -206 99
-329 269 -44 61 -84 111 -88 111 -10 0 41 -91 96 -174 43 -64 214 -260 296
-340 47 -46 52 -49 74 -37 13 7 174 157 358 333 398 381 511 475 722 599 65
38 73 55 64 130 -10 82 -21 88 -40 22z"/>
<path d="M2215 5323 c6 -27 132 -246 229 -400 51 -81 78 -87 31 -7 -14 25 -65
120 -112 212 -96 187 -118 222 -140 222 -12 0 -14 -7 -8 -27z"/>
</g>
</svg>
