<?xml version="1.0" standalone="no"?>
<!DOCTYPE svg PUBLIC "-//W3C//DTD SVG 20010904//EN"
 "http://www.w3.org/TR/2001/REC-SVG-20010904/DTD/svg10.dtd">
<svg version="1.0" xmlns="http://www.w3.org/2000/svg"
 width="1280.000000pt" height="744.000000pt" viewBox="0 0 1280.000000 744.000000"
 preserveAspectRatio="xMidYMid meet">
<metadata>
Created by potrace 1.15, written by Peter Selinger 2001-2017
</metadata>
<g transform="translate(0.000000,744.000000) scale(0.100000,-0.100000)"
fill="#000000" stroke="none">
<path d="M5070 6740 l0 -80 89 0 c49 0 101 -4 115 -10 25 -9 26 -12 26 -99 l0
-90 77 -3 c73 -3 77 -4 93 -33 10 -16 15 -34 13 -38 -3 -4 -2 -41 2 -82 l7
-74 56 -3 c54 -3 57 -5 79 -43 18 -32 23 -56 23 -117 l0 -78 35 0 c50 0 60
-24 56 -142 l-3 -98 39 0 c57 0 68 -23 64 -142 l-3 -98 40 0 c37 0 39 -2 51
-42 7 -24 22 -61 32 -82 10 -22 19 -54 19 -72 0 -29 3 -32 38 -38 20 -3 74 -6
120 -6 71 0 82 -2 83 -17 0 -10 2 -26 4 -35 3 -15 -4 -18 -46 -18 -27 0 -49 5
-49 10 0 6 -6 10 -14 10 -8 0 -16 5 -18 12 -4 10 -13 10 -46 0 -23 -7 -43 -16
-46 -21 -3 -4 -2 -32 3 -62 12 -77 -2 -191 -37 -289 -17 -47 -47 -137 -66
-200 -67 -211 -170 -398 -329 -590 -39 -47 -84 -114 -101 -150 -28 -58 -31
-75 -31 -160 0 -108 19 -161 93 -260 l42 -54 -38 -39 c-88 -91 -273 -225 -412
-299 -36 -19 -112 -54 -170 -77 -135 -56 -168 -72 -266 -136 -159 -103 -256
-226 -315 -395 -32 -95 -33 -275 0 -380 50 -162 132 -299 258 -431 213 -222
468 -348 771 -379 184 -19 385 26 517 116 22 14 34 19 27 11 -11 -13 -10 -15
7 -10 13 3 21 1 21 -6 0 -7 5 -9 10 -6 6 3 10 -1 10 -9 0 -9 11 -16 28 -18 26
-3 27 -6 30 -61 l3 -57 64 0 c88 0 95 -4 95 -55 0 -25 5 -45 13 -48 6 -3 -14
-6 -45 -6 l-58 -1 0 31 c0 22 -5 32 -20 36 -11 3 -17 9 -14 14 7 12 -67 11
-85 0 -12 -8 -14 -42 -12 -198 1 -103 7 -196 12 -205 5 -10 19 -18 29 -18 15
0 20 -7 20 -25 0 -24 2 -25 73 -26 l72 -2 -95 -8 c-123 -11 -122 -11 -115 -56
15 -93 -8 -83 199 -83 208 0 196 -6 196 87 0 31 3 53 7 50 3 -4 13 -1 22 5 13
10 14 10 4 -2 -15 -17 -17 -110 -3 -110 6 0 10 -7 10 -15 0 -13 27 -15 183
-15 129 0 187 4 195 12 15 15 17 348 3 348 -5 0 -11 12 -13 28 l-3 27 -105 6
c-58 3 -99 6 -93 7 17 3 12 45 -7 54 -8 4 26 7 75 7 50 1 100 4 111 7 30 8 36
41 41 233 4 162 -3 214 -31 233 -6 4 -55 8 -108 8 l-98 0 0 65 0 64 107 3
c141 4 135 -8 124 250 -5 108 -12 201 -15 207 -4 7 -41 11 -94 11 -116 0 -132
5 -132 41 0 15 5 40 12 54 10 22 9 28 -3 36 -9 6 7 9 49 9 55 0 62 -2 62 -20
0 -17 7 -20 48 -20 26 0 53 5 60 12 13 13 15 315 3 438 l-6 65 -67 5 c-60 4
-65 7 -54 22 6 9 34 19 61 23 28 4 56 12 63 17 8 7 12 47 12 134 0 67 4 133 9
146 5 13 10 28 11 33 2 6 42 31 89 56 242 127 378 269 410 429 22 109 -19 224
-120 336 -123 135 -160 213 -254 541 -59 203 -93 295 -143 379 -24 42 -42 58
-87 83 l-38 20 54 3 54 3 3 45 c4 67 33 184 48 193 8 5 14 25 14 48 0 22 10
74 23 115 l22 74 38 0 37 0 0 80 0 80 -107 0 c-143 0 -183 7 -183 31 0 11 -7
19 -15 19 -9 0 -33 9 -55 20 l-39 20 -15 -22 c-9 -12 -36 -86 -62 -165 l-47
-143 17 -55 c10 -30 27 -66 38 -80 18 -23 26 -25 95 -25 64 0 74 -2 69 -16 -3
-9 -6 -24 -6 -35 0 -17 -7 -19 -57 -18 -52 1 -54 2 -23 9 39 8 40 8 -84 15
-42 3 -75 0 -83 -6 -23 -20 -40 -2 -47 49 -3 27 -17 90 -30 141 -28 105 -51
135 -101 125 -57 -12 -68 -22 -60 -60 l6 -34 -60 0 c-57 0 -59 1 -70 31 -15
42 -15 41 18 34 51 -11 94 3 120 40 24 36 22 64 -6 96 -12 15 -11 18 17 27 42
15 46 33 19 100 -84 209 -140 299 -181 289 -12 -3 -18 0 -18 11 0 25 -43 82
-62 82 -24 0 -23 17 2 25 11 3 25 15 31 26 8 17 -5 42 -84 162 -52 78 -105
152 -116 165 -20 20 -24 21 -50 8 -53 -28 -56 -41 -20 -86 18 -22 29 -43 25
-47 -4 -5 -62 -10 -129 -11 l-121 -4 47 36 c26 20 54 36 61 36 17 0 52 42 62
72 4 13 -1 30 -15 49 -27 36 -26 40 4 69 32 30 31 49 -6 79 -24 18 -49 26
-116 32 -47 5 -89 7 -93 4 -5 -3 -20 8 -33 25 l-26 30 -160 0 -161 0 0 -80z
m807 -522 c30 -52 20 -68 -38 -68 -45 0 -51 3 -69 33 l-20 32 33 8 c17 5 38
15 46 22 18 17 24 14 48 -27z m119 -237 c12 -1 37 -51 30 -59 -3 -2 -49 -7
-103 -9 -93 -5 -97 -4 -75 12 12 9 22 26 22 38 0 20 4 22 57 20 32 -1 63 -2
69 -2z m97 -228 c-5 -11 -3 -14 6 -8 10 6 11 2 6 -15 -4 -14 -3 -20 3 -16 9 5
27 -22 19 -30 -2 -2 -31 -7 -64 -10 -61 -7 -61 -6 -77 24 -22 42 -21 42 22 42
20 0 48 7 62 14 14 8 26 14 27 15 1 1 -1 -6 -4 -16z m618 -253 c31 0 32 -2 23
-37 -6 -21 -13 -23 -64 -23 l-57 0 10 39 c10 36 13 38 34 30 14 -5 38 -9 54
-9z m-43 -2930 l3 -70 -43 1 c-24 1 -35 3 -25 6 9 2 17 13 17 22 0 10 6 37 14
59 11 31 12 42 3 46 -7 2 -3 5 8 5 19 1 21 -6 23 -69z m-1373 -286 c138 -66
237 -213 205 -308 -32 -99 -227 -83 -358 29 -66 57 -86 91 -83 143 4 79 35
118 119 148 51 18 54 18 117 -12z m1375 -324 l0 -70 -92 2 c-51 0 -78 3 -60 5
18 2 30 9 26 14 -3 5 1 20 9 33 8 12 17 33 19 47 4 28 20 37 66 38 l32 1 0
-70z m5 -611 l0 -70 -101 3 c-90 3 -105 1 -125 -17 l-24 -20 19 23 c11 12 26
22 35 22 13 0 13 2 3 9 -8 5 -18 24 -22 42 -7 30 -8 31 -9 8 -1 -15 -9 -33
-18 -40 -15 -11 -16 -11 -5 1 14 17 16 61 2 78 -7 9 -7 9 2 2 7 -5 36 -10 65
-10 39 0 57 5 71 19 11 13 31 20 62 20 l45 1 0 -71z m-482 -366 c-7 -2 -13
-13 -13 -23 0 -16 -18 -30 -41 -30 -5 0 -9 14 -9 30 0 28 2 30 38 29 20 0 31
-3 25 -6z m479 -143 l5 -30 -51 1 c-28 1 -41 4 -28 6 27 5 48 39 29 46 -6 3 0
6 14 6 22 1 27 -4 31 -29z"/>
<path d="M7347 6788 c-27 -37 -43 -103 -27 -113 5 -3 10 -15 10 -26 0 -16 -7
-19 -49 -19 -46 0 -48 1 -43 25 3 16 0 25 -8 25 -7 0 -28 11 -46 25 -18 14
-37 25 -43 25 -24 0 -211 -265 -211 -300 0 -11 5 -20 10 -20 6 0 10 -7 10 -15
0 -8 5 -15 11 -15 5 0 3 -10 -5 -22 -23 -32 -20 -73 8 -105 22 -25 31 -28 88
-29 35 -1 80 -8 100 -18 36 -15 39 -15 57 3 12 12 37 21 63 23 l43 3 3 74 c3
65 7 79 33 112 28 35 34 38 87 41 l57 3 0 80 0 80 35 17 c23 12 57 18 102 18
l68 0 0 80 0 80 -164 0 -165 0 -24 -32z m-197 -313 c7 -8 19 -15 26 -15 19 0
18 -7 -7 -41 -17 -24 -28 -29 -60 -29 -21 0 -39 5 -39 10 0 14 51 90 60 90 4
0 13 -7 20 -15z"/>
<path d="M6777 6198 c-19 -35 -55 -104 -81 -155 -42 -84 -45 -95 -34 -120 7
-15 16 -30 20 -34 4 -3 2 -19 -4 -36 -10 -28 -9 -35 13 -67 26 -38 67 -54 114
-42 26 7 55 -11 55 -32 0 -12 54 -32 86 -32 18 0 28 9 38 35 12 27 21 35 40
35 25 0 26 2 26 61 0 83 41 179 76 179 23 0 24 3 24 80 l0 80 -120 0 c-116 0
-120 1 -110 19 15 29 12 51 -7 51 -10 0 -29 9 -43 20 -41 32 -55 25 -93 -42z
m150 -237 c-6 -14 -15 -32 -20 -38 -10 -14 -103 -18 -111 -5 -3 5 3 22 13 38
16 26 23 29 73 30 l56 1 -11 -26z"/>
<path d="M6578 5253 c7 -3 16 -2 19 1 4 3 -2 6 -13 5 -11 0 -14 -3 -6 -6z"/>
</g>
</svg>
